<svg xmlns="http://www.w3.org/2000/svg" viewBox="0 0 800 420" preserveAspectRatio="xMidYMid slice" role="img" aria-hidden="true">
  <defs>
    <linearGradient id="fsky" x1="0" y1="0" x2="0" y2="1">
      <stop offset="0" stop-color="#CFE5F1"/>
      <stop offset="1" stop-color="#EFF6FA"/>
    </linearGradient>
  </defs>
  <rect width="800" height="420" fill="url(#fsky)"/>
  <circle cx="140" cy="78" r="36" fill="#F5C864"/>
  <path d="M480 210 L640 110 L800 210 Z" fill="#5E7F93"/>
  <path d="M0 420 L0 232 Q400 200 800 232 L800 420 Z" fill="#7FA86B"/>
  <path d="M0 420 L0 320 Q400 290 800 322 L800 420 Z" fill="#6B975A"/>
  <!-- wildflower meadow: varied blooms -->
  <g>
    <rect x="96" y="270" width="7" height="72" fill="#4F7D46"/>
    <circle cx="99" cy="258" r="16" fill="#C2506A"/><circle cx="99" cy="258" r="7" fill="#F2D7DE"/>
    <rect x="186" y="252" width="7" height="90" fill="#4F7D46"/>
    <g fill="#7B6CB0"><circle cx="189" cy="240" r="7"/><circle cx="178" cy="248" r="7"/><circle cx="200" cy="248" r="7"/><circle cx="183" cy="258" r="7"/><circle cx="196" cy="258" r="7"/></g>
    <circle cx="189" cy="250" r="6" fill="#F5C864"/>
    <rect x="276" y="266" width="7" height="80" fill="#4F7D46"/>
    <g fill="#E8A33D"><circle cx="279" cy="252" r="8"/><circle cx="268" cy="260" r="8"/><circle cx="290" cy="260" r="8"/><circle cx="273" cy="270" r="8"/><circle cx="286" cy="270" r="8"/></g>
    <circle cx="279" cy="262" r="6" fill="#7A5C42"/>
    <rect x="366" y="244" width="7" height="96" fill="#4F7D46"/>
    <circle cx="369" cy="232" r="17" fill="#D9647E"/><circle cx="369" cy="232" r="8" fill="#F2D7DE"/>
    <rect x="458" y="262" width="7" height="82" fill="#4F7D46"/>
    <g fill="#9CC3D9"><circle cx="461" cy="248" r="7"/><circle cx="450" cy="256" r="7"/><circle cx="472" cy="256" r="7"/><circle cx="455" cy="266" r="7"/><circle cx="468" cy="266" r="7"/></g>
    <circle cx="461" cy="258" r="5" fill="#F5C864"/>
    <rect x="548" y="252" width="7" height="90" fill="#4F7D46"/>
    <circle cx="551" cy="240" r="16" fill="#F5C864"/><circle cx="551" cy="240" r="7" fill="#B3822F"/>
    <rect x="642" y="268" width="7" height="76" fill="#4F7D46"/>
    <g fill="#C2506A"><circle cx="645" cy="254" r="8"/><circle cx="634" cy="262" r="8"/><circle cx="656" cy="262" r="8"/><circle cx="639" cy="272" r="8"/><circle cx="652" cy="272" r="8"/></g>
    <rect x="726" y="258" width="7" height="84" fill="#4F7D46"/>
    <circle cx="729" cy="246" r="15" fill="#7B6CB0"/><circle cx="729" cy="246" r="7" fill="#CFC4EA"/>
  </g>
  <!-- leaves + grasses -->
  <g fill="#5D8A4E">
    <path d="M110 316 q16 -14 28 2 q-16 12 -28 -2"/>
    <path d="M392 322 q16 -14 28 2 q-16 12 -28 -2"/>
    <path d="M676 320 q16 -14 28 2 q-16 12 -28 -2"/>
  </g>
  <g stroke="#5D8A4E" stroke-width="5" stroke-linecap="round" fill="none">
    <path d="M60 344 q4 -20 -3 -34"/><path d="M330 348 q6 -18 0 -34"/>
    <path d="M510 350 q4 -18 -2 -32"/><path d="M770 346 q4 -18 -2 -32"/>
  </g>
  <!-- butterfly + bee -->
  <g>
    <circle cx="420" cy="150" r="5" fill="#7A5C42"/>
    <path d="M420 150 q-16 -14 -6 -24 q10 -4 8 20 Z" fill="#E8A33D"/>
    <path d="M420 150 q16 -14 6 -24 q-10 -4 -8 20 Z" fill="#F5C864"/>
  </g>
  <g>
    <ellipse cx="580" cy="188" rx="9" ry="6" fill="#F5C864"/>
    <path d="M574 188 h12 M577 184 h6 M577 192 h6" stroke="#5B4A2F" stroke-width="2"/>
    <ellipse cx="580" cy="179" rx="6" ry="4" fill="#CFE5F1" opacity="0.9"/>
  </g>
</svg>
