<svg xmlns="http://www.w3.org/2000/svg" viewBox="0 0 1600 440" preserveAspectRatio="xMidYMid slice" role="img" aria-hidden="true">
  <defs>
    <linearGradient id="sky" x1="0" y1="0" x2="0" y2="1">
      <stop offset="0" stop-color="#BFDCEC"/>
      <stop offset="1" stop-color="#E8F3F9"/>
    </linearGradient>
    <linearGradient id="meadow" x1="0" y1="0" x2="0" y2="1">
      <stop offset="0" stop-color="#8FB477"/>
      <stop offset="1" stop-color="#6B975A"/>
    </linearGradient>
  </defs>
  <rect width="1600" height="440" fill="url(#sky)"/>
  <circle cx="1330" cy="86" r="52" fill="#F5C864"/>
  <circle cx="1330" cy="86" r="66" fill="#F5C864" opacity="0.25"/>
  <!-- far range -->
  <path d="M0 300 L140 190 L260 300 Z" fill="#7C97A8"/>
  <path d="M180 300 L340 150 L500 300 Z" fill="#6D8CA0"/>
  <path d="M900 300 L1060 180 L1220 300 Z" fill="#7C97A8"/>
  <!-- flatirons: slanted slabs -->
  <path d="M380 300 L560 96 L640 300 Z" fill="#4A6B80"/>
  <path d="M545 118 L560 96 L600 190 L575 196 Z" fill="#EDF4F8"/>
  <path d="M560 300 L740 120 L820 300 Z" fill="#3E5D71"/>
  <path d="M726 138 L740 120 L780 210 L756 214 Z" fill="#EDF4F8"/>
  <path d="M740 300 L900 150 L980 300 Z" fill="#4A6B80"/>
  <!-- meadow -->
  <path d="M0 440 L0 310 Q400 270 800 300 Q1200 330 1600 292 L1600 440 Z" fill="url(#meadow)"/>
  <path d="M0 440 L0 370 Q500 330 1600 360 L1600 440 Z" fill="#5D8A4E"/>
  <!-- winding path -->
  <path d="M700 440 Q760 380 880 360 Q1030 336 1120 300" fill="none" stroke="#D9C9A8" stroke-width="26" stroke-linecap="round" opacity="0.9"/>
  <!-- trees -->
  <g>
    <rect x="212" y="322" width="12" height="42" fill="#7A5C42"/>
    <path d="M218 246 L258 330 L178 330 Z" fill="#4F7D46"/>
    <path d="M218 270 L252 342 L184 342 Z" fill="#5D8A4E"/>
  </g>
  <g>
    <rect x="1418" y="308" width="12" height="44" fill="#7A5C42"/>
    <path d="M1424 232 L1464 318 L1384 318 Z" fill="#4F7D46"/>
    <path d="M1424 258 L1458 330 L1390 330 Z" fill="#5D8A4E"/>
  </g>
  <!-- planting volunteers -->
  <g transform="translate(0,-52)">
  <g>
    <circle cx="560" cy="352" r="14" fill="#E8B07A"/>
    <rect x="546" y="364" width="28" height="34" rx="8" fill="#B34747"/>
    <rect x="574" y="376" width="26" height="7" rx="3" fill="#7A5C42"/>
    <path d="M600 360 q10 -12 16 0 q-8 10 -16 0" fill="#4F7D46"/>
  </g>
  <g>
    <circle cx="960" cy="370" r="14" fill="#8A5A3B"/>
    <rect x="946" y="382" width="28" height="34" rx="8" fill="#3F6A8A"/>
    <circle cx="1000" cy="404" r="12" fill="#C2506A"/>
    <circle cx="1000" cy="404" r="6" fill="#D97B90"/>
    <rect x="996" y="414" width="8" height="14" fill="#4F7D46"/>
  </g>
  </g>
  <!-- scattered flowers -->
  <g fill="#C2506A">
    <circle cx="140" cy="400" r="6"/><circle cx="320" cy="412" r="6"/><circle cx="1240" cy="398" r="6"/>
  </g>
  <g fill="#F5C864">
    <circle cx="240" cy="424" r="6"/><circle cx="1120" cy="418" r="6"/><circle cx="1480" cy="408" r="6"/>
  </g>
</svg>
