<svg xmlns="http://www.w3.org/2000/svg" viewBox="0 0 400 180" preserveAspectRatio="xMidYMid slice">
  <rect width="400" height="180" fill="#E7F0E2"/>
  <rect y="130" width="400" height="50" fill="#7FA86B"/>
  <rect x="30" y="96" width="10" height="44" fill="#4F7D46"/>
  <circle cx="35" cy="86" r="14" fill="#C2506A"/>
  <circle cx="35" cy="86" r="7" fill="#D97B90"/>
  <rect x="110" y="104" width="9" height="36" fill="#4F7D46"/>
  <circle cx="114" cy="94" r="12" fill="#C2506A"/>
  <circle cx="114" cy="94" r="6" fill="#D97B90"/>
  <rect x="190" y="98" width="10" height="42" fill="#4F7D46"/>
  <circle cx="195" cy="88" r="13" fill="#B34747"/>
  <circle cx="195" cy="88" r="6" fill="#D97B90"/>
  <rect x="270" y="106" width="9" height="34" fill="#4F7D46"/>
  <circle cx="274" cy="96" r="12" fill="#C2506A"/>
  <circle cx="274" cy="96" r="6" fill="#D97B90"/>
  <rect x="330" y="60" width="46" height="80" rx="6" fill="#9A7B5B"/>
  <rect x="338" y="70" width="30" height="26" rx="4" fill="#C9A97F"/>
  <path d="M340 140 q13 -26 26 0" fill="#6B975A"/>
</svg>
