<svg xmlns="http://www.w3.org/2000/svg" viewBox="0 0 800 420" preserveAspectRatio="xMidYMid slice" role="img" aria-hidden="true">
  <defs>
    <linearGradient id="tsky" x1="0" y1="0" x2="0" y2="1">
      <stop offset="0" stop-color="#C4DFEE"/>
      <stop offset="1" stop-color="#EAF4F9"/>
    </linearGradient>
  </defs>
  <rect width="800" height="420" fill="url(#tsky)"/>
  <circle cx="680" cy="70" r="34" fill="#F5C864"/>
  <path d="M0 250 L170 120 L340 250 Z" fill="#4A6B80"/>
  <path d="M156 138 L170 120 L212 200 L188 206 Z" fill="#EDF4F8"/>
  <path d="M240 250 L430 100 L620 250 Z" fill="#3E5D71"/>
  <path d="M414 120 L430 100 L478 190 L450 196 Z" fill="#EDF4F8"/>
  <path d="M540 250 L700 150 L800 250 Z" fill="#5E7F93"/>
  <path d="M0 420 L0 262 Q400 226 800 262 L800 420 Z" fill="#5D8A4E"/>
  <g fill="#3F6B38">
    <path d="M60 268 L96 204 L132 268 Z"/><path d="M690 262 L726 198 L762 262 Z"/>
    <path d="M620 274 L650 222 L680 274 Z"/>
  </g>
  <!-- switchback trail -->
  <path d="M60 420 Q220 386 420 372 Q640 356 740 300" fill="none" stroke="#C9A97F" stroke-width="30" stroke-linecap="round"/>
  <path d="M60 420 Q220 386 420 372 Q640 356 740 300" fill="none" stroke="#D9C9A8" stroke-width="18" stroke-linecap="round"/>
  <!-- worker with shovel -->
  <g>
    <circle cx="360" cy="308" r="16" fill="#D99C6B"/>
    <path d="M342 302 a18 10 0 0 1 36 0 Z" fill="#E8A33D"/>
    <rect x="344" y="322" width="32" height="42" rx="9" fill="#E8A33D"/>
    <rect x="337" y="328" width="8" height="28" rx="3" fill="#D99C6B"/>
    <rect x="376" y="314" width="7" height="52" fill="#7A5C42"/>
    <path d="M372 366 h15 l-4 16 h-8 Z" fill="#8A8F94"/>
  </g>
  <!-- worker carrying rock -->
  <g>
    <circle cx="470" cy="330" r="15" fill="#E8B07A"/>
    <rect x="455" y="344" width="30" height="38" rx="8" fill="#B34747"/>
    <ellipse cx="470" cy="342" rx="17" ry="10" fill="#8A8F94"/>
  </g>
  <!-- rock pile + wheelbarrow -->
  <ellipse cx="580" cy="392" rx="34" ry="16" fill="#8A8F94"/>
  <ellipse cx="612" cy="400" rx="22" ry="12" fill="#A2A7AC"/>
  <g>
    <path d="M120 372 h58 l-10 24 h-38 Z" fill="#3F6A8A"/>
    <circle cx="149" cy="404" r="10" fill="#2C4F66"/>
    <rect x="176" y="376" width="26" height="6" rx="3" transform="rotate(18 176 376)" fill="#7A5C42"/>
  </g>
  <g fill="#C2506A"><circle cx="260" cy="402" r="5"/><circle cx="710" cy="396" r="5"/></g>
</svg>
